<svg xmlns="http://www.w3.org/2000/svg" width="718" height="400"><polygon points="-17.32050807568877,-10.0 0.0,-20.0 17.32050807568877,-10.0 17.32050807568877,10.0 0.0,20.0 -17.32050807568877,10.0" fill="rgb(37, 197, 240)" /><polygon points="17.32050807568877,-10.0 34.64101615137754,-20.0 51.96152422706631,-10.0 51.96152422706631,10.0 34.64101615137754,20.0 17.32050807568877,10.0" fill="rgb(25, 189, 243)" /><polygon points="51.96152422706631,-10.0 69.28203230275508,-20.0 86.60254037844385,-10.0 86.60254037844385,10.0 69.28203230275508,20.0 51.96152422706631,10.0" fill="rgb(27, 180, 250)" /><polygon points="86.60254037844385,-10.0 103.92304845413263,-20.0 121.2435565298214,-10.0 121.2435565298214,10.0 103.92304845413263,20.0 86.60254037844385,10.0" fill="rgb(27, 175, 252)" /><polygon points="121.2435565298214,-10.0 138.56406460551017,-20.0 155.88457268119893,-10.0 155.88457268119893,10.0 138.56406460551017,20.0 121.2435565298214,10.0" fill="rgb(28, 174, 253)" /><polygon points="155.88457268119893,-10.0 173.2050807568877,-20.0 190.52558883257646,-10.0 190.52558883257646,10.0 173.2050807568877,20.0 155.88457268119893,10.0" fill="rgb(30, 180, 249)" /><polygon points="190.5255888325765,-10.0 207.84609690826525,-20.0 225.16660498395402,-10.0 225.16660498395402,10.0 207.84609690826525,20.0 190.5255888325765,10.0" fill="rgb(43, 195, 233)" /><polygon points="225.16660498395404,-10.0 242.4871130596428,-20.0 259.8076211353316,-10.0 259.8076211353316,10.0 242.4871130596428,20.0 225.16660498395404,10.0" fill="rgb(38, 206, 227)" /><polygon points="259.80762113533154,-10.0 277.12812921102034,-20.0 294.44863728670913,-10.0 294.44863728670913,10.0 277.12812921102034,20.0 259.80762113533154,10.0" fill="rgb(78, 213, 201)" /><polygon points="294.4486372867091,-10.0 311.76914536239786,-20.0 329.08965343808666,-10.0 329.08965343808666,10.0 311.76914536239786,20.0 294.4486372867091,10.0" fill="rgb(235, 192, 102)" /><polygon points="329.0896534380866,-10.0 346.4101615137754,-20.0 363.7306695894642,-10.0 363.7306695894642,10.0 346.4101615137754,20.0 329.0896534380866,10.0" fill="rgb(244, 189, 97)" /><polygon points="363.7306695894642,-10.0 381.051177665153,-20.0 398.37168574084177,-10.0 398.37168574084177,10.0 381.051177665153,20.0 363.7306695894642,10.0" fill="rgb(235, 156, 107)" /><polygon points="398.3716857408417,-10.0 415.6921938165305,-20.0 433.0127018922193,-10.0 433.0127018922193,10.0 415.6921938165305,20.0 398.3716857408417,10.0" fill="rgb(240, 125, 115)" /><polygon points="433.01270189221924,-10.0 450.33320996790803,-20.0 467.6537180435968,-10.0 467.6537180435968,10.0 450.33320996790803,20.0 433.01270189221924,10.0" fill="rgb(215, 105, 120)" /><polygon points="467.6537180435968,-10.0 484.9742261192856,-20.0 502.2947341949744,-10.0 502.2947341949744,10.0 484.9742261192856,20.0 467.6537180435968,10.0" fill="rgb(171, 99, 126)" /><polygon points="502.2947341949743,-10.0 519.6152422706631,-20.0 536.9357503463518,-10.0 536.9357503463518,10.0 519.6152422706631,20.0 502.2947341949743,10.0" fill="rgb(125, 88, 132)" /><polygon points="536.9357503463519,-10.0 554.2562584220407,-20.0 571.5767664977294,-10.0 571.5767664977294,10.0 554.2562584220407,20.0 536.9357503463519,10.0" fill="rgb(115, 85, 134)" /><polygon points="571.5767664977295,-10.0 588.8972745734183,-20.0 606.217782649107,-10.0 606.217782649107,10.0 588.8972745734183,20.0 571.5767664977295,10.0" fill="rgb(114, 86, 134)" /><polygon points="606.217782649107,-10.0 623.5382907247957,-20.0 640.8587988004845,-10.0 640.8587988004845,10.0 623.5382907247957,20.0 606.217782649107,10.0" fill="rgb(68, 95, 132)" /><polygon points="640.8587988004846,-10.0 658.1793068761733,-20.0 675.499814951862,-10.0 675.499814951862,10.0 658.1793068761733,20.0 640.8587988004846,10.0" fill="rgb(31, 101, 133)" /><polygon points="675.499814951862,-10.0 692.8203230275508,-20.0 710.1408311032395,-10.0 710.1408311032395,10.0 692.8203230275508,20.0 675.499814951862,10.0" fill="rgb(26, 103, 133)" /><polygon points="710.1408311032396,-10.0 727.4613391789284,-20.0 744.7818472546171,-10.0 744.7818472546171,10.0 727.4613391789284,20.0 710.1408311032396,10.0" fill="rgb(27, 103, 133)" /><polygon points="0.0,20.0 17.32050807568877,10.0 34.64101615137754,20.0 34.64101615137754,40.0 17.32050807568877,50.0 0.0,40.0" fill="rgb(32, 189, 244)" /><polygon points="34.64101615137754,20.0 51.96152422706631,10.0 69.28203230275508,20.0 69.28203230275508,40.0 51.96152422706631,50.0 34.64101615137754,40.0" fill="rgb(26, 183, 248)" /><polygon points="69.28203230275508,20.0 86.60254037844385,10.0 103.92304845413261,20.0 103.92304845413261,40.0 86.60254037844385,50.0 69.28203230275508,40.0" fill="rgb(27, 174, 252)" /><polygon points="103.92304845413264,20.0 121.2435565298214,10.0 138.56406460551017,20.0 138.56406460551017,40.0 121.2435565298214,50.0 103.92304845413264,40.0" fill="rgb(27, 174, 252)" /><polygon points="138.56406460551017,20.0 155.88457268119893,10.0 173.2050807568877,20.0 173.2050807568877,40.0 155.88457268119893,50.0 138.56406460551017,40.0" fill="rgb(35, 183, 245)" /><polygon points="173.2050807568877,20.0 190.52558883257646,10.0 207.84609690826522,20.0 207.84609690826522,40.0 190.52558883257646,50.0 173.2050807568877,40.0" fill="rgb(62, 195, 226)" /><polygon points="207.84609690826525,20.0 225.16660498395402,10.0 242.48711305964278,20.0 242.48711305964278,40.0 225.16660498395402,50.0 207.84609690826525,40.0" fill="rgb(81, 205, 208)" /><polygon points="242.48711305964284,20.0 259.8076211353316,10.0 277.1281292110204,20.0 277.1281292110204,40.0 259.8076211353316,50.0 242.48711305964284,40.0" fill="rgb(84, 196, 200)" /><polygon points="277.12812921102034,20.0 294.44863728670913,10.0 311.7691453623979,20.0 311.7691453623979,40.0 294.44863728670913,50.0 277.12812921102034,40.0" fill="rgb(163, 195, 161)" /><polygon points="311.76914536239786,20.0 329.08965343808666,10.0 346.41016151377545,20.0 346.41016151377545,40.0 329.08965343808666,50.0 311.76914536239786,40.0" fill="rgb(237, 190, 105)" /><polygon points="346.4101615137754,20.0 363.7306695894642,10.0 381.051177665153,20.0 381.051177665153,40.0 363.7306695894642,50.0 346.4101615137754,40.0" fill="rgb(227, 153, 110)" /><polygon points="381.051177665153,20.0 398.37168574084177,10.0 415.69219381653056,20.0 415.69219381653056,40.0 398.37168574084177,50.0 381.051177665153,40.0" fill="rgb(214, 122, 119)" /><polygon points="415.6921938165305,20.0 433.0127018922193,10.0 450.3332099679081,20.0 450.3332099679081,40.0 433.0127018922193,50.0 415.6921938165305,40.0" fill="rgb(196, 101, 125)" /><polygon points="450.33320996790803,20.0 467.6537180435968,10.0 484.9742261192856,20.0 484.9742261192856,40.0 467.6537180435968,50.0 450.33320996790803,40.0" fill="rgb(144, 89, 130)" /><polygon points="484.9742261192856,20.0 502.2947341949744,10.0 519.6152422706632,20.0 519.6152422706632,40.0 502.2947341949744,50.0 484.9742261192856,40.0" fill="rgb(111, 95, 131)" /><polygon points="519.6152422706631,20.0 536.9357503463518,10.0 554.2562584220406,20.0 554.2562584220406,40.0 536.9357503463518,50.0 519.6152422706631,40.0" fill="rgb(130, 89, 130)" /><polygon points="554.2562584220407,20.0 571.5767664977294,10.0 588.8972745734181,20.0 588.8972745734181,40.0 571.5767664977294,50.0 554.2562584220407,40.0" fill="rgb(104, 88, 133)" /><polygon points="588.8972745734183,20.0 606.217782649107,10.0 623.5382907247957,20.0 623.5382907247957,40.0 606.217782649107,50.0 588.8972745734183,40.0" fill="rgb(85, 91, 133)" /><polygon points="623.5382907247957,20.0 640.8587988004845,10.0 658.1793068761732,20.0 658.1793068761732,40.0 640.8587988004845,50.0 623.5382907247957,40.0" fill="rgb(41, 99, 133)" /><polygon points="658.1793068761733,20.0 675.499814951862,10.0 692.8203230275508,20.0 692.8203230275508,40.0 675.499814951862,50.0 658.1793068761733,40.0" fill="rgb(26, 102, 133)" /><polygon points="692.8203230275508,20.0 710.1408311032395,10.0 727.4613391789283,20.0 727.4613391789283,40.0 710.1408311032395,50.0 692.8203230275508,40.0" fill="rgb(26, 103, 133)" /><polygon points="727.4613391789284,20.0 744.7818472546171,10.0 762.1023553303058,20.0 762.1023553303058,40.0 744.7818472546171,50.0 727.4613391789284,40.0" fill="rgb(0, 0, 0)" /><polygon points="-17.32050807568877,50.0 0.0,40.0 17.32050807568877,50.0 17.32050807568877,70.0 0.0,80.0 -17.32050807568877,70.0" fill="rgb(41, 189, 246)" /><polygon points="17.32050807568877,50.0 34.64101615137754,40.0 51.96152422706631,50.0 51.96152422706631,70.0 34.64101615137754,80.0 17.32050807568877,70.0" fill="rgb(27, 180, 249)" /><polygon points="51.96152422706631,50.0 69.28203230275508,40.0 86.60254037844385,50.0 86.60254037844385,70.0 69.28203230275508,80.0 51.96152422706631,70.0" fill="rgb(27, 177, 251)" /><polygon points="86.60254037844385,50.0 103.92304845413263,40.0 121.2435565298214,50.0 121.2435565298214,70.0 103.92304845413263,80.0 86.60254037844385,70.0" fill="rgb(46, 183, 238)" /><polygon points="121.2435565298214,50.0 138.56406460551017,40.0 155.88457268119893,50.0 155.88457268119893,70.0 138.56406460551017,80.0 121.2435565298214,70.0" fill="rgb(32, 178, 247)" /><polygon points="155.88457268119893,50.0 173.2050807568877,40.0 190.52558883257646,50.0 190.52558883257646,70.0 173.2050807568877,80.0 155.88457268119893,70.0" fill="rgb(61, 210, 219)" /><polygon points="190.5255888325765,50.0 207.84609690826525,40.0 225.16660498395402,50.0 225.16660498395402,70.0 207.84609690826525,80.0 190.5255888325765,70.0" fill="rgb(74, 213, 209)" /><polygon points="225.16660498395404,50.0 242.4871130596428,40.0 259.8076211353316,50.0 259.8076211353316,70.0 242.4871130596428,80.0 225.16660498395404,70.0" fill="rgb(103, 191, 190)" /><polygon points="259.80762113533154,50.0 277.12812921102034,40.0 294.44863728670913,50.0 294.44863728670913,70.0 277.12812921102034,80.0 259.80762113533154,70.0" fill="rgb(199, 154, 140)" /><polygon points="294.4486372867091,50.0 311.76914536239786,40.0 329.08965343808666,50.0 329.08965343808666,70.0 311.76914536239786,80.0 294.4486372867091,70.0" fill="rgb(203, 160, 129)" /><polygon points="329.0896534380866,50.0 346.4101615137754,40.0 363.7306695894642,50.0 363.7306695894642,70.0 346.4101615137754,80.0 329.0896534380866,70.0" fill="rgb(216, 142, 113)" /><polygon points="363.7306695894642,50.0 381.051177665153,40.0 398.37168574084177,50.0 398.37168574084177,70.0 381.051177665153,80.0 363.7306695894642,70.0" fill="rgb(191, 121, 117)" /><polygon points="398.3716857408417,50.0 415.6921938165305,40.0 433.0127018922193,50.0 433.0127018922193,70.0 415.6921938165305,80.0 398.3716857408417,70.0" fill="rgb(186, 104, 124)" /><polygon points="433.01270189221924,50.0 450.33320996790803,40.0 467.6537180435968,50.0 467.6537180435968,70.0 450.33320996790803,80.0 433.01270189221924,70.0" fill="rgb(97, 91, 134)" /><polygon points="467.6537180435968,50.0 484.9742261192856,40.0 502.2947341949744,50.0 502.2947341949744,70.0 484.9742261192856,80.0 467.6537180435968,70.0" fill="rgb(92, 92, 132)" /><polygon points="502.2947341949743,50.0 519.6152422706631,40.0 536.9357503463518,50.0 536.9357503463518,70.0 519.6152422706631,80.0 502.2947341949743,70.0" fill="rgb(81, 95, 131)" /><polygon points="536.9357503463519,50.0 554.2562584220407,40.0 571.5767664977294,50.0 571.5767664977294,70.0 554.2562584220407,80.0 536.9357503463519,70.0" fill="rgb(86, 93, 131)" /><polygon points="571.5767664977295,50.0 588.8972745734183,40.0 606.217782649107,50.0 606.217782649107,70.0 588.8972745734183,80.0 571.5767664977295,70.0" fill="rgb(57, 97, 133)" /><polygon points="606.217782649107,50.0 623.5382907247957,40.0 640.8587988004845,50.0 640.8587988004845,70.0 623.5382907247957,80.0 606.217782649107,70.0" fill="rgb(39, 100, 132)" /><polygon points="640.8587988004846,50.0 658.1793068761733,40.0 675.499814951862,50.0 675.499814951862,70.0 658.1793068761733,80.0 640.8587988004846,70.0" fill="rgb(26, 103, 133)" /><polygon points="675.499814951862,50.0 692.8203230275508,40.0 710.1408311032395,50.0 710.1408311032395,70.0 692.8203230275508,80.0 675.499814951862,70.0" fill="rgb(26, 103, 133)" /><polygon points="710.1408311032396,50.0 727.4613391789284,40.0 744.7818472546171,50.0 744.7818472546171,70.0 727.4613391789284,80.0 710.1408311032396,70.0" fill="rgb(27, 103, 133)" /><polygon points="0.0,80.0 17.32050807568877,70.0 34.64101615137754,80.0 34.64101615137754,100.0 17.32050807568877,110.0 0.0,100.0" fill="rgb(44, 199, 236)" /><polygon points="34.64101615137754,80.0 51.96152422706631,70.0 69.28203230275508,80.0 69.28203230275508,100.0 51.96152422706631,110.0 34.64101615137754,100.0" fill="rgb(27, 176, 252)" /><polygon points="69.28203230275508,80.0 86.60254037844385,70.0 103.92304845413261,80.0 103.92304845413261,100.0 86.60254037844385,110.0 69.28203230275508,100.0" fill="rgb(27, 175, 252)" /><polygon points="103.92304845413264,80.0 121.2435565298214,70.0 138.56406460551017,80.0 138.56406460551017,100.0 121.2435565298214,110.0 103.92304845413264,100.0" fill="rgb(100, 183, 197)" /><polygon points="138.56406460551017,80.0 155.88457268119893,70.0 173.2050807568877,80.0 173.2050807568877,100.0 155.88457268119893,110.0 138.56406460551017,100.0" fill="rgb(32, 185, 241)" /><polygon points="173.2050807568877,80.0 190.52558883257646,70.0 207.84609690826522,80.0 207.84609690826522,100.0 190.52558883257646,110.0 173.2050807568877,100.0" fill="rgb(90, 211, 200)" /><polygon points="207.84609690826525,80.0 225.16660498395402,70.0 242.48711305964278,80.0 242.48711305964278,100.0 225.16660498395402,110.0 207.84609690826525,100.0" fill="rgb(137, 185, 177)" /><polygon points="242.48711305964284,80.0 259.8076211353316,70.0 277.1281292110204,80.0 277.1281292110204,100.0 259.8076211353316,110.0 242.48711305964284,100.0" fill="rgb(199, 162, 140)" /><polygon points="277.12812921102034,80.0 294.44863728670913,70.0 311.7691453623979,80.0 311.7691453623979,100.0 294.44863728670913,110.0 277.12812921102034,100.0" fill="rgb(203, 116, 120)" /><polygon points="311.76914536239786,80.0 329.08965343808666,70.0 346.41016151377545,80.0 346.41016151377545,100.0 329.08965343808666,110.0 311.76914536239786,100.0" fill="rgb(198, 110, 121)" /><polygon points="346.4101615137754,80.0 363.7306695894642,70.0 381.051177665153,80.0 381.051177665153,100.0 363.7306695894642,110.0 346.4101615137754,100.0" fill="rgb(177, 110, 122)" /><polygon points="381.051177665153,80.0 398.37168574084177,70.0 415.69219381653056,80.0 415.69219381653056,100.0 398.37168574084177,110.0 381.051177665153,100.0" fill="rgb(206, 109, 120)" /><polygon points="415.6921938165305,80.0 433.0127018922193,70.0 450.3332099679081,80.0 450.3332099679081,100.0 433.0127018922193,110.0 415.6921938165305,100.0" fill="rgb(190, 97, 124)" /><polygon points="450.33320996790803,80.0 467.6537180435968,70.0 484.9742261192856,80.0 484.9742261192856,100.0 467.6537180435968,110.0 450.33320996790803,100.0" fill="rgb(111, 90, 131)" /><polygon points="484.9742261192856,80.0 502.2947341949744,70.0 519.6152422706632,80.0 519.6152422706632,100.0 502.2947341949744,110.0 484.9742261192856,100.0" fill="rgb(62, 96, 132)" /><polygon points="519.6152422706631,80.0 536.9357503463518,70.0 554.2562584220406,80.0 554.2562584220406,100.0 536.9357503463518,110.0 519.6152422706631,100.0" fill="rgb(49, 98, 133)" /><polygon points="554.2562584220407,80.0 571.5767664977294,70.0 588.8972745734181,80.0 588.8972745734181,100.0 571.5767664977294,110.0 554.2562584220407,100.0" fill="rgb(35, 101, 133)" /><polygon points="588.8972745734183,80.0 606.217782649107,70.0 623.5382907247957,80.0 623.5382907247957,100.0 606.217782649107,110.0 588.8972745734183,100.0" fill="rgb(30, 102, 133)" /><polygon points="623.5382907247957,80.0 640.8587988004845,70.0 658.1793068761732,80.0 658.1793068761732,100.0 640.8587988004845,110.0 623.5382907247957,100.0" fill="rgb(27, 102, 133)" /><polygon points="658.1793068761733,80.0 675.499814951862,70.0 692.8203230275508,80.0 692.8203230275508,100.0 675.499814951862,110.0 658.1793068761733,100.0" fill="rgb(26, 103, 133)" /><polygon points="692.8203230275508,80.0 710.1408311032395,70.0 727.4613391789283,80.0 727.4613391789283,100.0 710.1408311032395,110.0 692.8203230275508,100.0" fill="rgb(26, 103, 133)" /><polygon points="727.4613391789284,80.0 744.7818472546171,70.0 762.1023553303058,80.0 762.1023553303058,100.0 744.7818472546171,110.0 727.4613391789284,100.0" fill="rgb(0, 0, 0)" /><polygon points="-17.32050807568877,110.0 0.0,100.0 17.32050807568877,110.0 17.32050807568877,130.0 0.0,140.0 -17.32050807568877,130.0" fill="rgb(76, 222, 223)" /><polygon points="17.32050807568877,110.0 34.64101615137754,100.0 51.96152422706631,110.0 51.96152422706631,130.0 34.64101615137754,140.0 17.32050807568877,130.0" fill="rgb(38, 189, 243)" /><polygon points="51.96152422706631,110.0 69.28203230275508,100.0 86.60254037844385,110.0 86.60254037844385,130.0 69.28203230275508,140.0 51.96152422706631,130.0" fill="rgb(35, 183, 244)" /><polygon points="86.60254037844385,110.0 103.92304845413263,100.0 121.2435565298214,110.0 121.2435565298214,130.0 103.92304845413263,140.0 86.60254037844385,130.0" fill="rgb(45, 185, 234)" /><polygon points="121.2435565298214,110.0 138.56406460551017,100.0 155.88457268119893,110.0 155.88457268119893,130.0 138.56406460551017,140.0 121.2435565298214,130.0" fill="rgb(118, 196, 179)" /><polygon points="155.88457268119893,110.0 173.2050807568877,100.0 190.52558883257646,110.0 190.52558883257646,130.0 173.2050807568877,140.0 155.88457268119893,130.0" fill="rgb(88, 198, 201)" /><polygon points="190.5255888325765,110.0 207.84609690826525,100.0 225.16660498395402,110.0 225.16660498395402,130.0 207.84609690826525,140.0 190.5255888325765,130.0" fill="rgb(166, 175, 160)" /><polygon points="225.16660498395404,110.0 242.4871130596428,100.0 259.8076211353316,110.0 259.8076211353316,130.0 242.4871130596428,140.0 225.16660498395404,130.0" fill="rgb(229, 137, 123)" /><polygon points="259.80762113533154,110.0 277.12812921102034,100.0 294.44863728670913,110.0 294.44863728670913,130.0 277.12812921102034,140.0 259.80762113533154,130.0" fill="rgb(220, 111, 117)" /><polygon points="294.4486372867091,110.0 311.76914536239786,100.0 329.08965343808666,110.0 329.08965343808666,130.0 311.76914536239786,140.0 294.4486372867091,130.0" fill="rgb(203, 100, 120)" /><polygon points="329.0896534380866,110.0 346.4101615137754,100.0 363.7306695894642,110.0 363.7306695894642,130.0 346.4101615137754,140.0 329.0896534380866,130.0" fill="rgb(192, 98, 123)" /><polygon points="363.7306695894642,110.0 381.051177665153,100.0 398.37168574084177,110.0 398.37168574084177,130.0 381.051177665153,140.0 363.7306695894642,130.0" fill="rgb(143, 89, 129)" /><polygon points="398.3716857408417,110.0 415.6921938165305,100.0 433.0127018922193,110.0 433.0127018922193,130.0 415.6921938165305,140.0 398.3716857408417,130.0" fill="rgb(149, 92, 129)" /><polygon points="433.01270189221924,110.0 450.33320996790803,100.0 467.6537180435968,110.0 467.6537180435968,130.0 450.33320996790803,140.0 433.01270189221924,130.0" fill="rgb(133, 89, 130)" /><polygon points="467.6537180435968,110.0 484.9742261192856,100.0 502.2947341949744,110.0 502.2947341949744,130.0 484.9742261192856,140.0 467.6537180435968,130.0" fill="rgb(110, 88, 133)" /><polygon points="502.2947341949743,110.0 519.6152422706631,100.0 536.9357503463518,110.0 536.9357503463518,130.0 519.6152422706631,140.0 502.2947341949743,130.0" fill="rgb(45, 98, 132)" /><polygon points="536.9357503463519,110.0 554.2562584220407,100.0 571.5767664977294,110.0 571.5767664977294,130.0 554.2562584220407,140.0 536.9357503463519,130.0" fill="rgb(27, 102, 132)" /><polygon points="571.5767664977295,110.0 588.8972745734183,100.0 606.217782649107,110.0 606.217782649107,130.0 588.8972745734183,140.0 571.5767664977295,130.0" fill="rgb(26, 103, 133)" /><polygon points="606.217782649107,110.0 623.5382907247957,100.0 640.8587988004845,110.0 640.8587988004845,130.0 623.5382907247957,140.0 606.217782649107,130.0" fill="rgb(26, 103, 133)" /><polygon points="640.8587988004846,110.0 658.1793068761733,100.0 675.499814951862,110.0 675.499814951862,130.0 658.1793068761733,140.0 640.8587988004846,130.0" fill="rgb(26, 103, 133)" /><polygon points="675.499814951862,110.0 692.8203230275508,100.0 710.1408311032395,110.0 710.1408311032395,130.0 692.8203230275508,140.0 675.499814951862,130.0" fill="rgb(26, 103, 133)" /><polygon points="710.1408311032396,110.0 727.4613391789284,100.0 744.7818472546171,110.0 744.7818472546171,130.0 727.4613391789284,140.0 710.1408311032396,130.0" fill="rgb(27, 103, 133)" /><polygon points="0.0,140.0 17.32050807568877,130.0 34.64101615137754,140.0 34.64101615137754,160.0 17.32050807568877,170.0 0.0,160.0" fill="rgb(71, 221, 219)" /><polygon points="34.64101615137754,140.0 51.96152422706631,130.0 69.28203230275508,140.0 69.28203230275508,160.0 51.96152422706631,170.0 34.64101615137754,160.0" fill="rgb(52, 206, 228)" /><polygon points="69.28203230275508,140.0 86.60254037844385,130.0 103.92304845413261,140.0 103.92304845413261,160.0 86.60254037844385,170.0 69.28203230275508,160.0" fill="rgb(87, 195, 201)" /><polygon points="103.92304845413264,140.0 121.2435565298214,130.0 138.56406460551017,140.0 138.56406460551017,160.0 121.2435565298214,170.0 103.92304845413264,160.0" fill="rgb(88, 184, 192)" /><polygon points="138.56406460551017,140.0 155.88457268119893,130.0 173.2050807568877,140.0 173.2050807568877,160.0 155.88457268119893,170.0 138.56406460551017,160.0" fill="rgb(127, 179, 166)" /><polygon points="173.2050807568877,140.0 190.52558883257646,130.0 207.84609690826522,140.0 207.84609690826522,160.0 190.52558883257646,170.0 173.2050807568877,160.0" fill="rgb(171, 198, 151)" /><polygon points="207.84609690826525,140.0 225.16660498395402,130.0 242.48711305964278,140.0 242.48711305964278,160.0 225.16660498395402,170.0 207.84609690826525,160.0" fill="rgb(217, 151, 120)" /><polygon points="242.48711305964284,140.0 259.8076211353316,130.0 277.1281292110204,140.0 277.1281292110204,160.0 259.8076211353316,170.0 242.48711305964284,160.0" fill="rgb(166, 96, 124)" /><polygon points="277.12812921102034,140.0 294.44863728670913,130.0 311.7691453623979,140.0 311.7691453623979,160.0 294.44863728670913,170.0 277.12812921102034,160.0" fill="rgb(168, 97, 124)" /><polygon points="311.76914536239786,140.0 329.08965343808666,130.0 346.41016151377545,140.0 346.41016151377545,160.0 329.08965343808666,170.0 311.76914536239786,160.0" fill="rgb(113, 99, 129)" /><polygon points="346.4101615137754,140.0 363.7306695894642,130.0 381.051177665153,140.0 381.051177665153,160.0 363.7306695894642,170.0 346.4101615137754,160.0" fill="rgb(111, 89, 132)" /><polygon points="381.051177665153,140.0 398.37168574084177,130.0 415.69219381653056,140.0 415.69219381653056,160.0 398.37168574084177,170.0 381.051177665153,160.0" fill="rgb(92, 90, 133)" /><polygon points="415.6921938165305,140.0 433.0127018922193,130.0 450.3332099679081,140.0 450.3332099679081,160.0 433.0127018922193,170.0 415.6921938165305,160.0" fill="rgb(86, 91, 133)" /><polygon points="450.33320996790803,140.0 467.6537180435968,130.0 484.9742261192856,140.0 484.9742261192856,160.0 467.6537180435968,170.0 450.33320996790803,160.0" fill="rgb(54, 98, 132)" /><polygon points="484.9742261192856,140.0 502.2947341949744,130.0 519.6152422706632,140.0 519.6152422706632,160.0 502.2947341949744,170.0 484.9742261192856,160.0" fill="rgb(44, 99, 132)" /><polygon points="519.6152422706631,140.0 536.9357503463518,130.0 554.2562584220406,140.0 554.2562584220406,160.0 536.9357503463518,170.0 519.6152422706631,160.0" fill="rgb(27, 103, 133)" /><polygon points="554.2562584220407,140.0 571.5767664977294,130.0 588.8972745734181,140.0 588.8972745734181,160.0 571.5767664977294,170.0 554.2562584220407,160.0" fill="rgb(26, 103, 133)" /><polygon points="588.8972745734183,140.0 606.217782649107,130.0 623.5382907247957,140.0 623.5382907247957,160.0 606.217782649107,170.0 588.8972745734183,160.0" fill="rgb(26, 103, 133)" /><polygon points="623.5382907247957,140.0 640.8587988004845,130.0 658.1793068761732,140.0 658.1793068761732,160.0 640.8587988004845,170.0 623.5382907247957,160.0" fill="rgb(26, 103, 133)" /><polygon points="658.1793068761733,140.0 675.499814951862,130.0 692.8203230275508,140.0 692.8203230275508,160.0 675.499814951862,170.0 658.1793068761733,160.0" fill="rgb(26, 102, 133)" /><polygon points="692.8203230275508,140.0 710.1408311032395,130.0 727.4613391789283,140.0 727.4613391789283,160.0 710.1408311032395,170.0 692.8203230275508,160.0" fill="rgb(27, 103, 133)" /><polygon points="727.4613391789284,140.0 744.7818472546171,130.0 762.1023553303058,140.0 762.1023553303058,160.0 744.7818472546171,170.0 727.4613391789284,160.0" fill="rgb(0, 0, 0)" /><polygon points="-17.32050807568877,170.0 0.0,160.0 17.32050807568877,170.0 17.32050807568877,190.0 0.0,200.0 -17.32050807568877,190.0" fill="rgb(132, 192, 190)" /><polygon points="17.32050807568877,170.0 34.64101615137754,160.0 51.96152422706631,170.0 51.96152422706631,190.0 34.64101615137754,200.0 17.32050807568877,190.0" fill="rgb(91, 210, 203)" /><polygon points="51.96152422706631,170.0 69.28203230275508,160.0 86.60254037844385,170.0 86.60254037844385,190.0 69.28203230275508,200.0 51.96152422706631,190.0" fill="rgb(168, 173, 165)" /><polygon points="86.60254037844385,170.0 103.92304845413263,160.0 121.2435565298214,170.0 121.2435565298214,190.0 103.92304845413263,200.0 86.60254037844385,190.0" fill="rgb(165, 156, 158)" /><polygon points="121.2435565298214,170.0 138.56406460551017,160.0 155.88457268119893,170.0 155.88457268119893,190.0 138.56406460551017,200.0 121.2435565298214,190.0" fill="rgb(177, 120, 133)" /><polygon points="155.88457268119893,170.0 173.2050807568877,160.0 190.52558883257646,170.0 190.52558883257646,190.0 173.2050807568877,200.0 155.88457268119893,190.0" fill="rgb(210, 149, 118)" /><polygon points="190.5255888325765,170.0 207.84609690826525,160.0 225.16660498395402,170.0 225.16660498395402,190.0 207.84609690826525,200.0 190.5255888325765,190.0" fill="rgb(179, 117, 121)" /><polygon points="225.16660498395404,170.0 242.4871130596428,160.0 259.8076211353316,170.0 259.8076211353316,190.0 242.4871130596428,200.0 225.16660498395404,190.0" fill="rgb(125, 101, 128)" /><polygon points="259.80762113533154,170.0 277.12812921102034,160.0 294.44863728670913,170.0 294.44863728670913,190.0 277.12812921102034,200.0 259.80762113533154,190.0" fill="rgb(64, 97, 131)" /><polygon points="294.4486372867091,170.0 311.76914536239786,160.0 329.08965343808666,170.0 329.08965343808666,190.0 311.76914536239786,200.0 294.4486372867091,190.0" fill="rgb(76, 97, 132)" /><polygon points="329.0896534380866,170.0 346.4101615137754,160.0 363.7306695894642,170.0 363.7306695894642,190.0 346.4101615137754,200.0 329.0896534380866,190.0" fill="rgb(27, 103, 133)" /><polygon points="363.7306695894642,170.0 381.051177665153,160.0 398.37168574084177,170.0 398.37168574084177,190.0 381.051177665153,200.0 363.7306695894642,190.0" fill="rgb(38, 100, 132)" /><polygon points="398.3716857408417,170.0 415.6921938165305,160.0 433.0127018922193,170.0 433.0127018922193,190.0 415.6921938165305,200.0 398.3716857408417,190.0" fill="rgb(42, 100, 133)" /><polygon points="433.01270189221924,170.0 450.33320996790803,160.0 467.6537180435968,170.0 467.6537180435968,190.0 450.33320996790803,200.0 433.01270189221924,190.0" fill="rgb(32, 101, 132)" /><polygon points="467.6537180435968,170.0 484.9742261192856,160.0 502.2947341949744,170.0 502.2947341949744,190.0 484.9742261192856,200.0 467.6537180435968,190.0" fill="rgb(27, 102, 133)" /><polygon points="502.2947341949743,170.0 519.6152422706631,160.0 536.9357503463518,170.0 536.9357503463518,190.0 519.6152422706631,200.0 502.2947341949743,190.0" fill="rgb(27, 102, 132)" /><polygon points="536.9357503463519,170.0 554.2562584220407,160.0 571.5767664977294,170.0 571.5767664977294,190.0 554.2562584220407,200.0 536.9357503463519,190.0" fill="rgb(26, 102, 133)" /><polygon points="571.5767664977295,170.0 588.8972745734183,160.0 606.217782649107,170.0 606.217782649107,190.0 588.8972745734183,200.0 571.5767664977295,190.0" fill="rgb(26, 102, 133)" /><polygon points="606.217782649107,170.0 623.5382907247957,160.0 640.8587988004845,170.0 640.8587988004845,190.0 623.5382907247957,200.0 606.217782649107,190.0" fill="rgb(26, 102, 133)" /><polygon points="640.8587988004846,170.0 658.1793068761733,160.0 675.499814951862,170.0 675.499814951862,190.0 658.1793068761733,200.0 640.8587988004846,190.0" fill="rgb(26, 103, 133)" /><polygon points="675.499814951862,170.0 692.8203230275508,160.0 710.1408311032395,170.0 710.1408311032395,190.0 692.8203230275508,200.0 675.499814951862,190.0" fill="rgb(26, 102, 133)" /><polygon points="710.1408311032396,170.0 727.4613391789284,160.0 744.7818472546171,170.0 744.7818472546171,190.0 727.4613391789284,200.0 710.1408311032396,190.0" fill="rgb(26, 102, 133)" /><polygon points="0.0,200.0 17.32050807568877,190.0 34.64101615137754,200.0 34.64101615137754,220.0 17.32050807568877,230.0 0.0,220.0" fill="rgb(195, 157, 151)" /><polygon points="34.64101615137754,200.0 51.96152422706631,190.0 69.28203230275508,200.0 69.28203230275508,220.0 51.96152422706631,230.0 34.64101615137754,220.0" fill="rgb(189, 186, 144)" /><polygon points="69.28203230275508,200.0 86.60254037844385,190.0 103.92304845413261,200.0 103.92304845413261,220.0 86.60254037844385,230.0 69.28203230275508,220.0" fill="rgb(230, 163, 119)" /><polygon points="103.92304845413264,200.0 121.2435565298214,190.0 138.56406460551017,200.0 138.56406460551017,220.0 121.2435565298214,230.0 103.92304845413264,220.0" fill="rgb(232, 106, 126)" /><polygon points="138.56406460551017,200.0 155.88457268119893,190.0 173.2050807568877,200.0 173.2050807568877,220.0 155.88457268119893,230.0 138.56406460551017,220.0" fill="rgb(176, 105, 124)" /><polygon points="173.2050807568877,200.0 190.52558883257646,190.0 207.84609690826522,200.0 207.84609690826522,220.0 190.52558883257646,230.0 173.2050807568877,220.0" fill="rgb(191, 106, 121)" /><polygon points="207.84609690826525,200.0 225.16660498395402,190.0 242.48711305964278,200.0 242.48711305964278,220.0 225.16660498395402,230.0 207.84609690826525,220.0" fill="rgb(134, 95, 128)" /><polygon points="242.48711305964284,200.0 259.8076211353316,190.0 277.1281292110204,200.0 277.1281292110204,220.0 259.8076211353316,230.0 242.48711305964284,220.0" fill="rgb(65, 94, 134)" /><polygon points="277.12812921102034,200.0 294.44863728670913,190.0 311.7691453623979,200.0 311.7691453623979,220.0 294.44863728670913,230.0 277.12812921102034,220.0" fill="rgb(56, 98, 133)" /><polygon points="311.76914536239786,200.0 329.08965343808666,190.0 346.41016151377545,200.0 346.41016151377545,220.0 329.08965343808666,230.0 311.76914536239786,220.0" fill="rgb(38, 101, 133)" /><polygon points="346.4101615137754,200.0 363.7306695894642,190.0 381.051177665153,200.0 381.051177665153,220.0 363.7306695894642,230.0 346.4101615137754,220.0" fill="rgb(27, 103, 133)" /><polygon points="381.051177665153,200.0 398.37168574084177,190.0 415.69219381653056,200.0 415.69219381653056,220.0 398.37168574084177,230.0 381.051177665153,220.0" fill="rgb(30, 102, 133)" /><polygon points="415.6921938165305,200.0 433.0127018922193,190.0 450.3332099679081,200.0 450.3332099679081,220.0 433.0127018922193,230.0 415.6921938165305,220.0" fill="rgb(27, 103, 133)" /><polygon points="450.33320996790803,200.0 467.6537180435968,190.0 484.9742261192856,200.0 484.9742261192856,220.0 467.6537180435968,230.0 450.33320996790803,220.0" fill="rgb(26, 103, 133)" /><polygon points="484.9742261192856,200.0 502.2947341949744,190.0 519.6152422706632,200.0 519.6152422706632,220.0 502.2947341949744,230.0 484.9742261192856,220.0" fill="rgb(26, 102, 133)" /><polygon points="519.6152422706631,200.0 536.9357503463518,190.0 554.2562584220406,200.0 554.2562584220406,220.0 536.9357503463518,230.0 519.6152422706631,220.0" fill="rgb(29, 102, 132)" /><polygon points="554.2562584220407,200.0 571.5767664977294,190.0 588.8972745734181,200.0 588.8972745734181,220.0 571.5767664977294,230.0 554.2562584220407,220.0" fill="rgb(26, 103, 133)" /><polygon points="588.8972745734183,200.0 606.217782649107,190.0 623.5382907247957,200.0 623.5382907247957,220.0 606.217782649107,230.0 588.8972745734183,220.0" fill="rgb(26, 102, 133)" /><polygon points="623.5382907247957,200.0 640.8587988004845,190.0 658.1793068761732,200.0 658.1793068761732,220.0 640.8587988004845,230.0 623.5382907247957,220.0" fill="rgb(26, 103, 133)" /><polygon points="658.1793068761733,200.0 675.499814951862,190.0 692.8203230275508,200.0 692.8203230275508,220.0 675.499814951862,230.0 658.1793068761733,220.0" fill="rgb(26, 103, 133)" /><polygon points="692.8203230275508,200.0 710.1408311032395,190.0 727.4613391789283,200.0 727.4613391789283,220.0 710.1408311032395,230.0 692.8203230275508,220.0" fill="rgb(26, 102, 133)" /><polygon points="727.4613391789284,200.0 744.7818472546171,190.0 762.1023553303058,200.0 762.1023553303058,220.0 744.7818472546171,230.0 727.4613391789284,220.0" fill="rgb(0, 0, 0)" /><polygon points="-17.32050807568877,230.0 0.0,220.0 17.32050807568877,230.0 17.32050807568877,250.0 0.0,260.0 -17.32050807568877,250.0" fill="rgb(228, 143, 136)" /><polygon points="17.32050807568877,230.0 34.64101615137754,220.0 51.96152422706631,230.0 51.96152422706631,250.0 34.64101615137754,260.0 17.32050807568877,250.0" fill="rgb(243, 127, 120)" /><polygon points="51.96152422706631,230.0 69.28203230275508,220.0 86.60254037844385,230.0 86.60254037844385,250.0 69.28203230275508,260.0 51.96152422706631,250.0" fill="rgb(246, 120, 114)" /><polygon points="86.60254037844385,230.0 103.92304845413263,220.0 121.2435565298214,230.0 121.2435565298214,250.0 103.92304845413263,260.0 86.60254037844385,250.0" fill="rgb(241, 116, 117)" /><polygon points="121.2435565298214,230.0 138.56406460551017,220.0 155.88457268119893,230.0 155.88457268119893,250.0 138.56406460551017,260.0 121.2435565298214,250.0" fill="rgb(157, 96, 127)" /><polygon points="155.88457268119893,230.0 173.2050807568877,220.0 190.52558883257646,230.0 190.52558883257646,250.0 173.2050807568877,260.0 155.88457268119893,250.0" fill="rgb(122, 91, 130)" /><polygon points="190.5255888325765,230.0 207.84609690826525,220.0 225.16660498395402,230.0 225.16660498395402,250.0 207.84609690826525,260.0 190.5255888325765,250.0" fill="rgb(142, 92, 127)" /><polygon points="225.16660498395404,230.0 242.4871130596428,220.0 259.8076211353316,230.0 259.8076211353316,250.0 242.4871130596428,260.0 225.16660498395404,250.0" fill="rgb(93, 93, 132)" /><polygon points="259.80762113533154,230.0 277.12812921102034,220.0 294.44863728670913,230.0 294.44863728670913,250.0 277.12812921102034,260.0 259.80762113533154,250.0" fill="rgb(27, 102, 133)" /><polygon points="294.4486372867091,230.0 311.76914536239786,220.0 329.08965343808666,230.0 329.08965343808666,250.0 311.76914536239786,260.0 294.4486372867091,250.0" fill="rgb(27, 103, 133)" /><polygon points="329.0896534380866,230.0 346.4101615137754,220.0 363.7306695894642,230.0 363.7306695894642,250.0 346.4101615137754,260.0 329.0896534380866,250.0" fill="rgb(27, 103, 133)" /><polygon points="363.7306695894642,230.0 381.051177665153,220.0 398.37168574084177,230.0 398.37168574084177,250.0 381.051177665153,260.0 363.7306695894642,250.0" fill="rgb(26, 103, 133)" /><polygon points="398.3716857408417,230.0 415.6921938165305,220.0 433.0127018922193,230.0 433.0127018922193,250.0 415.6921938165305,260.0 398.3716857408417,250.0" fill="rgb(26, 103, 133)" /><polygon points="433.01270189221924,230.0 450.33320996790803,220.0 467.6537180435968,230.0 467.6537180435968,250.0 450.33320996790803,260.0 433.01270189221924,250.0" fill="rgb(27, 103, 133)" /><polygon points="467.6537180435968,230.0 484.9742261192856,220.0 502.2947341949744,230.0 502.2947341949744,250.0 484.9742261192856,260.0 467.6537180435968,250.0" fill="rgb(26, 103, 133)" /><polygon points="502.2947341949743,230.0 519.6152422706631,220.0 536.9357503463518,230.0 536.9357503463518,250.0 519.6152422706631,260.0 502.2947341949743,250.0" fill="rgb(27, 102, 132)" /><polygon points="536.9357503463519,230.0 554.2562584220407,220.0 571.5767664977294,230.0 571.5767664977294,250.0 554.2562584220407,260.0 536.9357503463519,250.0" fill="rgb(27, 102, 132)" /><polygon points="571.5767664977295,230.0 588.8972745734183,220.0 606.217782649107,230.0 606.217782649107,250.0 588.8972745734183,260.0 571.5767664977295,250.0" fill="rgb(26, 103, 133)" /><polygon points="606.217782649107,230.0 623.5382907247957,220.0 640.8587988004845,230.0 640.8587988004845,250.0 623.5382907247957,260.0 606.217782649107,250.0" fill="rgb(27, 102, 133)" /><polygon points="640.8587988004846,230.0 658.1793068761733,220.0 675.499814951862,230.0 675.499814951862,250.0 658.1793068761733,260.0 640.8587988004846,250.0" fill="rgb(27, 103, 133)" /><polygon points="675.499814951862,230.0 692.8203230275508,220.0 710.1408311032395,230.0 710.1408311032395,250.0 692.8203230275508,260.0 675.499814951862,250.0" fill="rgb(26, 102, 133)" /><polygon points="710.1408311032396,230.0 727.4613391789284,220.0 744.7818472546171,230.0 744.7818472546171,250.0 727.4613391789284,260.0 710.1408311032396,250.0" fill="rgb(26, 102, 133)" /><polygon points="0.0,260.0 17.32050807568877,250.0 34.64101615137754,260.0 34.64101615137754,280.0 17.32050807568877,290.0 0.0,280.0" fill="rgb(247, 122, 122)" /><polygon points="34.64101615137754,260.0 51.96152422706631,250.0 69.28203230275508,260.0 69.28203230275508,280.0 51.96152422706631,290.0 34.64101615137754,280.0" fill="rgb(195, 101, 123)" /><polygon points="69.28203230275508,260.0 86.60254037844385,250.0 103.92304845413261,260.0 103.92304845413261,280.0 86.60254037844385,290.0 69.28203230275508,280.0" fill="rgb(201, 100, 121)" /><polygon points="103.92304845413264,260.0 121.2435565298214,250.0 138.56406460551017,260.0 138.56406460551017,280.0 121.2435565298214,290.0 103.92304845413264,280.0" fill="rgb(159, 93, 125)" /><polygon points="138.56406460551017,260.0 155.88457268119893,250.0 173.2050807568877,260.0 173.2050807568877,280.0 155.88457268119893,290.0 138.56406460551017,280.0" fill="rgb(84, 93, 132)" /><polygon points="173.2050807568877,260.0 190.52558883257646,250.0 207.84609690826522,260.0 207.84609690826522,280.0 190.52558883257646,290.0 173.2050807568877,280.0" fill="rgb(56, 97, 133)" /><polygon points="207.84609690826525,260.0 225.16660498395402,250.0 242.48711305964278,260.0 242.48711305964278,280.0 225.16660498395402,290.0 207.84609690826525,280.0" fill="rgb(41, 99, 133)" /><polygon points="242.48711305964284,260.0 259.8076211353316,250.0 277.1281292110204,260.0 277.1281292110204,280.0 259.8076211353316,290.0 242.48711305964284,280.0" fill="rgb(35, 101, 133)" /><polygon points="277.12812921102034,260.0 294.44863728670913,250.0 311.7691453623979,260.0 311.7691453623979,280.0 294.44863728670913,290.0 277.12812921102034,280.0" fill="rgb(26, 103, 133)" /><polygon points="311.76914536239786,260.0 329.08965343808666,250.0 346.41016151377545,260.0 346.41016151377545,280.0 329.08965343808666,290.0 311.76914536239786,280.0" fill="rgb(26, 102, 133)" /><polygon points="346.4101615137754,260.0 363.7306695894642,250.0 381.051177665153,260.0 381.051177665153,280.0 363.7306695894642,290.0 346.4101615137754,280.0" fill="rgb(26, 103, 133)" /><polygon points="381.051177665153,260.0 398.37168574084177,250.0 415.69219381653056,260.0 415.69219381653056,280.0 398.37168574084177,290.0 381.051177665153,280.0" fill="rgb(26, 103, 133)" /><polygon points="415.6921938165305,260.0 433.0127018922193,250.0 450.3332099679081,260.0 450.3332099679081,280.0 433.0127018922193,290.0 415.6921938165305,280.0" fill="rgb(26, 103, 133)" /><polygon points="450.33320996790803,260.0 467.6537180435968,250.0 484.9742261192856,260.0 484.9742261192856,280.0 467.6537180435968,290.0 450.33320996790803,280.0" fill="rgb(26, 102, 133)" /><polygon points="484.9742261192856,260.0 502.2947341949744,250.0 519.6152422706632,260.0 519.6152422706632,280.0 502.2947341949744,290.0 484.9742261192856,280.0" fill="rgb(26, 102, 133)" /><polygon points="519.6152422706631,260.0 536.9357503463518,250.0 554.2562584220406,260.0 554.2562584220406,280.0 536.9357503463518,290.0 519.6152422706631,280.0" fill="rgb(26, 102, 133)" /><polygon points="554.2562584220407,260.0 571.5767664977294,250.0 588.8972745734181,260.0 588.8972745734181,280.0 571.5767664977294,290.0 554.2562584220407,280.0" fill="rgb(26, 103, 133)" /><polygon points="588.8972745734183,260.0 606.217782649107,250.0 623.5382907247957,260.0 623.5382907247957,280.0 606.217782649107,290.0 588.8972745734183,280.0" fill="rgb(26, 103, 133)" /><polygon points="623.5382907247957,260.0 640.8587988004845,250.0 658.1793068761732,260.0 658.1793068761732,280.0 640.8587988004845,290.0 623.5382907247957,280.0" fill="rgb(26, 103, 133)" /><polygon points="658.1793068761733,260.0 675.499814951862,250.0 692.8203230275508,260.0 692.8203230275508,280.0 675.499814951862,290.0 658.1793068761733,280.0" fill="rgb(26, 103, 133)" /><polygon points="692.8203230275508,260.0 710.1408311032395,250.0 727.4613391789283,260.0 727.4613391789283,280.0 710.1408311032395,290.0 692.8203230275508,280.0" fill="rgb(26, 102, 132)" /><polygon points="727.4613391789284,260.0 744.7818472546171,250.0 762.1023553303058,260.0 762.1023553303058,280.0 744.7818472546171,290.0 727.4613391789284,280.0" fill="rgb(0, 0, 0)" /><polygon points="-17.32050807568877,290.0 0.0,280.0 17.32050807568877,290.0 17.32050807568877,310.0 0.0,320.0 -17.32050807568877,310.0" fill="rgb(238, 114, 131)" /><polygon points="17.32050807568877,290.0 34.64101615137754,280.0 51.96152422706631,290.0 51.96152422706631,310.0 34.64101615137754,320.0 17.32050807568877,310.0" fill="rgb(202, 99, 124)" /><polygon points="51.96152422706631,290.0 69.28203230275508,280.0 86.60254037844385,290.0 86.60254037844385,310.0 69.28203230275508,320.0 51.96152422706631,310.0" fill="rgb(103, 94, 129)" /><polygon points="86.60254037844385,290.0 103.92304845413263,280.0 121.2435565298214,290.0 121.2435565298214,310.0 103.92304845413263,320.0 86.60254037844385,310.0" fill="rgb(110, 91, 131)" /><polygon points="121.2435565298214,290.0 138.56406460551017,280.0 155.88457268119893,290.0 155.88457268119893,310.0 138.56406460551017,320.0 121.2435565298214,310.0" fill="rgb(87, 91, 133)" /><polygon points="155.88457268119893,290.0 173.2050807568877,280.0 190.52558883257646,290.0 190.52558883257646,310.0 173.2050807568877,320.0 155.88457268119893,310.0" fill="rgb(51, 97, 132)" /><polygon points="190.5255888325765,290.0 207.84609690826525,280.0 225.16660498395402,290.0 225.16660498395402,310.0 207.84609690826525,320.0 190.5255888325765,310.0" fill="rgb(27, 102, 133)" /><polygon points="225.16660498395404,290.0 242.4871130596428,280.0 259.8076211353316,290.0 259.8076211353316,310.0 242.4871130596428,320.0 225.16660498395404,310.0" fill="rgb(26, 103, 133)" /><polygon points="259.80762113533154,290.0 277.12812921102034,280.0 294.44863728670913,290.0 294.44863728670913,310.0 277.12812921102034,320.0 259.80762113533154,310.0" fill="rgb(26, 103, 133)" /><polygon points="294.4486372867091,290.0 311.76914536239786,280.0 329.08965343808666,290.0 329.08965343808666,310.0 311.76914536239786,320.0 294.4486372867091,310.0" fill="rgb(26, 103, 133)" /><polygon points="329.0896534380866,290.0 346.4101615137754,280.0 363.7306695894642,290.0 363.7306695894642,310.0 346.4101615137754,320.0 329.0896534380866,310.0" fill="rgb(26, 103, 133)" /><polygon points="363.7306695894642,290.0 381.051177665153,280.0 398.37168574084177,290.0 398.37168574084177,310.0 381.051177665153,320.0 363.7306695894642,310.0" fill="rgb(27, 103, 133)" /><polygon points="398.3716857408417,290.0 415.6921938165305,280.0 433.0127018922193,290.0 433.0127018922193,310.0 415.6921938165305,320.0 398.3716857408417,310.0" fill="rgb(27, 102, 133)" /><polygon points="433.01270189221924,290.0 450.33320996790803,280.0 467.6537180435968,290.0 467.6537180435968,310.0 450.33320996790803,320.0 433.01270189221924,310.0" fill="rgb(26, 103, 133)" /><polygon points="467.6537180435968,290.0 484.9742261192856,280.0 502.2947341949744,290.0 502.2947341949744,310.0 484.9742261192856,320.0 467.6537180435968,310.0" fill="rgb(26, 102, 133)" /><polygon points="502.2947341949743,290.0 519.6152422706631,280.0 536.9357503463518,290.0 536.9357503463518,310.0 519.6152422706631,320.0 502.2947341949743,310.0" fill="rgb(26, 102, 133)" /><polygon points="536.9357503463519,290.0 554.2562584220407,280.0 571.5767664977294,290.0 571.5767664977294,310.0 554.2562584220407,320.0 536.9357503463519,310.0" fill="rgb(26, 103, 133)" /><polygon points="571.5767664977295,290.0 588.8972745734183,280.0 606.217782649107,290.0 606.217782649107,310.0 588.8972745734183,320.0 571.5767664977295,310.0" fill="rgb(27, 103, 133)" /><polygon points="606.217782649107,290.0 623.5382907247957,280.0 640.8587988004845,290.0 640.8587988004845,310.0 623.5382907247957,320.0 606.217782649107,310.0" fill="rgb(26, 103, 133)" /><polygon points="640.8587988004846,290.0 658.1793068761733,280.0 675.499814951862,290.0 675.499814951862,310.0 658.1793068761733,320.0 640.8587988004846,310.0" fill="rgb(26, 103, 133)" /><polygon points="675.499814951862,290.0 692.8203230275508,280.0 710.1408311032395,290.0 710.1408311032395,310.0 692.8203230275508,320.0 675.499814951862,310.0" fill="rgb(26, 102, 132)" /><polygon points="710.1408311032396,290.0 727.4613391789284,280.0 744.7818472546171,290.0 744.7818472546171,310.0 727.4613391789284,320.0 710.1408311032396,310.0" fill="rgb(26, 102, 133)" /><polygon points="0.0,320.0 17.32050807568877,310.0 34.64101615137754,320.0 34.64101615137754,340.0 17.32050807568877,350.0 0.0,340.0" fill="rgb(166, 102, 129)" /><polygon points="34.64101615137754,320.0 51.96152422706631,310.0 69.28203230275508,320.0 69.28203230275508,340.0 51.96152422706631,350.0 34.64101615137754,340.0" fill="rgb(88, 96, 130)" /><polygon points="69.28203230275508,320.0 86.60254037844385,310.0 103.92304845413261,320.0 103.92304845413261,340.0 86.60254037844385,350.0 69.28203230275508,340.0" fill="rgb(50, 98, 132)" /><polygon points="103.92304845413264,320.0 121.2435565298214,310.0 138.56406460551017,320.0 138.56406460551017,340.0 121.2435565298214,350.0 103.92304845413264,340.0" fill="rgb(63, 95, 133)" /><polygon points="138.56406460551017,320.0 155.88457268119893,310.0 173.2050807568877,320.0 173.2050807568877,340.0 155.88457268119893,350.0 138.56406460551017,340.0" fill="rgb(37, 100, 132)" /><polygon points="173.2050807568877,320.0 190.52558883257646,310.0 207.84609690826522,320.0 207.84609690826522,340.0 190.52558883257646,350.0 173.2050807568877,340.0" fill="rgb(27, 102, 133)" /><polygon points="207.84609690826525,320.0 225.16660498395402,310.0 242.48711305964278,320.0 242.48711305964278,340.0 225.16660498395402,350.0 207.84609690826525,340.0" fill="rgb(26, 103, 133)" /><polygon points="242.48711305964284,320.0 259.8076211353316,310.0 277.1281292110204,320.0 277.1281292110204,340.0 259.8076211353316,350.0 242.48711305964284,340.0" fill="rgb(26, 103, 133)" /><polygon points="277.12812921102034,320.0 294.44863728670913,310.0 311.7691453623979,320.0 311.7691453623979,340.0 294.44863728670913,350.0 277.12812921102034,340.0" fill="rgb(26, 103, 133)" /><polygon points="311.76914536239786,320.0 329.08965343808666,310.0 346.41016151377545,320.0 346.41016151377545,340.0 329.08965343808666,350.0 311.76914536239786,340.0" fill="rgb(26, 103, 133)" /><polygon points="346.4101615137754,320.0 363.7306695894642,310.0 381.051177665153,320.0 381.051177665153,340.0 363.7306695894642,350.0 346.4101615137754,340.0" fill="rgb(26, 103, 133)" /><polygon points="381.051177665153,320.0 398.37168574084177,310.0 415.69219381653056,320.0 415.69219381653056,340.0 398.37168574084177,350.0 381.051177665153,340.0" fill="rgb(29, 102, 132)" /><polygon points="415.6921938165305,320.0 433.0127018922193,310.0 450.3332099679081,320.0 450.3332099679081,340.0 433.0127018922193,350.0 415.6921938165305,340.0" fill="rgb(26, 103, 133)" /><polygon points="450.33320996790803,320.0 467.6537180435968,310.0 484.9742261192856,320.0 484.9742261192856,340.0 467.6537180435968,350.0 450.33320996790803,340.0" fill="rgb(26, 103, 133)" /><polygon points="484.9742261192856,320.0 502.2947341949744,310.0 519.6152422706632,320.0 519.6152422706632,340.0 502.2947341949744,350.0 484.9742261192856,340.0" fill="rgb(26, 103, 133)" /><polygon points="519.6152422706631,320.0 536.9357503463518,310.0 554.2562584220406,320.0 554.2562584220406,340.0 536.9357503463518,350.0 519.6152422706631,340.0" fill="rgb(26, 103, 133)" /><polygon points="554.2562584220407,320.0 571.5767664977294,310.0 588.8972745734181,320.0 588.8972745734181,340.0 571.5767664977294,350.0 554.2562584220407,340.0" fill="rgb(26, 103, 133)" /><polygon points="588.8972745734183,320.0 606.217782649107,310.0 623.5382907247957,320.0 623.5382907247957,340.0 606.217782649107,350.0 588.8972745734183,340.0" fill="rgb(26, 103, 133)" /><polygon points="623.5382907247957,320.0 640.8587988004845,310.0 658.1793068761732,320.0 658.1793068761732,340.0 640.8587988004845,350.0 623.5382907247957,340.0" fill="rgb(26, 102, 133)" /><polygon points="658.1793068761733,320.0 675.499814951862,310.0 692.8203230275508,320.0 692.8203230275508,340.0 675.499814951862,350.0 658.1793068761733,340.0" fill="rgb(26, 102, 133)" /><polygon points="692.8203230275508,320.0 710.1408311032395,310.0 727.4613391789283,320.0 727.4613391789283,340.0 710.1408311032395,350.0 692.8203230275508,340.0" fill="rgb(26, 102, 133)" /><polygon points="727.4613391789284,320.0 744.7818472546171,310.0 762.1023553303058,320.0 762.1023553303058,340.0 744.7818472546171,350.0 727.4613391789284,340.0" fill="rgb(0, 0, 0)" /><polygon points="-17.32050807568877,350.0 0.0,340.0 17.32050807568877,350.0 17.32050807568877,370.0 0.0,380.0 -17.32050807568877,370.0" fill="rgb(143, 97, 138)" /><polygon points="17.32050807568877,350.0 34.64101615137754,340.0 51.96152422706631,350.0 51.96152422706631,370.0 34.64101615137754,380.0 17.32050807568877,370.0" fill="rgb(62, 97, 132)" /><polygon points="51.96152422706631,350.0 69.28203230275508,340.0 86.60254037844385,350.0 86.60254037844385,370.0 69.28203230275508,380.0 51.96152422706631,370.0" fill="rgb(27, 102, 132)" /><polygon points="86.60254037844385,350.0 103.92304845413263,340.0 121.2435565298214,350.0 121.2435565298214,370.0 103.92304845413263,380.0 86.60254037844385,370.0" fill="rgb(28, 102, 132)" /><polygon points="121.2435565298214,350.0 138.56406460551017,340.0 155.88457268119893,350.0 155.88457268119893,370.0 138.56406460551017,380.0 121.2435565298214,370.0" fill="rgb(30, 102, 133)" /><polygon points="155.88457268119893,350.0 173.2050807568877,340.0 190.52558883257646,350.0 190.52558883257646,370.0 173.2050807568877,380.0 155.88457268119893,370.0" fill="rgb(26, 103, 133)" /><polygon points="190.5255888325765,350.0 207.84609690826525,340.0 225.16660498395402,350.0 225.16660498395402,370.0 207.84609690826525,380.0 190.5255888325765,370.0" fill="rgb(26, 103, 133)" /><polygon points="225.16660498395404,350.0 242.4871130596428,340.0 259.8076211353316,350.0 259.8076211353316,370.0 242.4871130596428,380.0 225.16660498395404,370.0" fill="rgb(26, 103, 133)" /><polygon points="259.80762113533154,350.0 277.12812921102034,340.0 294.44863728670913,350.0 294.44863728670913,370.0 277.12812921102034,380.0 259.80762113533154,370.0" fill="rgb(26, 103, 133)" /><polygon points="294.4486372867091,350.0 311.76914536239786,340.0 329.08965343808666,350.0 329.08965343808666,370.0 311.76914536239786,380.0 294.4486372867091,370.0" fill="rgb(26, 103, 133)" /><polygon points="329.0896534380866,350.0 346.4101615137754,340.0 363.7306695894642,350.0 363.7306695894642,370.0 346.4101615137754,380.0 329.0896534380866,370.0" fill="rgb(26, 103, 133)" /><polygon points="363.7306695894642,350.0 381.051177665153,340.0 398.37168574084177,350.0 398.37168574084177,370.0 381.051177665153,380.0 363.7306695894642,370.0" fill="rgb(26, 102, 133)" /><polygon points="398.3716857408417,350.0 415.6921938165305,340.0 433.0127018922193,350.0 433.0127018922193,370.0 415.6921938165305,380.0 398.3716857408417,370.0" fill="rgb(26, 103, 133)" /><polygon points="433.01270189221924,350.0 450.33320996790803,340.0 467.6537180435968,350.0 467.6537180435968,370.0 450.33320996790803,380.0 433.01270189221924,370.0" fill="rgb(26, 103, 133)" /><polygon points="467.6537180435968,350.0 484.9742261192856,340.0 502.2947341949744,350.0 502.2947341949744,370.0 484.9742261192856,380.0 467.6537180435968,370.0" fill="rgb(26, 103, 133)" /><polygon points="502.2947341949743,350.0 519.6152422706631,340.0 536.9357503463518,350.0 536.9357503463518,370.0 519.6152422706631,380.0 502.2947341949743,370.0" fill="rgb(26, 103, 133)" /><polygon points="536.9357503463519,350.0 554.2562584220407,340.0 571.5767664977294,350.0 571.5767664977294,370.0 554.2562584220407,380.0 536.9357503463519,370.0" fill="rgb(26, 103, 133)" /><polygon points="571.5767664977295,350.0 588.8972745734183,340.0 606.217782649107,350.0 606.217782649107,370.0 588.8972745734183,380.0 571.5767664977295,370.0" fill="rgb(26, 103, 133)" /><polygon points="606.217782649107,350.0 623.5382907247957,340.0 640.8587988004845,350.0 640.8587988004845,370.0 623.5382907247957,380.0 606.217782649107,370.0" fill="rgb(26, 103, 133)" /><polygon points="640.8587988004846,350.0 658.1793068761733,340.0 675.499814951862,350.0 675.499814951862,370.0 658.1793068761733,380.0 640.8587988004846,370.0" fill="rgb(26, 102, 133)" /><polygon points="675.499814951862,350.0 692.8203230275508,340.0 710.1408311032395,350.0 710.1408311032395,370.0 692.8203230275508,380.0 675.499814951862,370.0" fill="rgb(27, 102, 133)" /><polygon points="710.1408311032396,350.0 727.4613391789284,340.0 744.7818472546171,350.0 744.7818472546171,370.0 727.4613391789284,380.0 710.1408311032396,370.0" fill="rgb(26, 103, 133)" /><polygon points="0.0,380.0 17.32050807568877,370.0 34.64101615137754,380.0 34.64101615137754,400.0 17.32050807568877,410.0 0.0,400.0" fill="rgb(74, 99, 137)" /><polygon points="34.64101615137754,380.0 51.96152422706631,370.0 69.28203230275508,380.0 69.28203230275508,400.0 51.96152422706631,410.0 34.64101615137754,400.0" fill="rgb(26, 103, 133)" /><polygon points="69.28203230275508,380.0 86.60254037844385,370.0 103.92304845413261,380.0 103.92304845413261,400.0 86.60254037844385,410.0 69.28203230275508,400.0" fill="rgb(26, 102, 133)" /><polygon points="103.92304845413264,380.0 121.2435565298214,370.0 138.56406460551017,380.0 138.56406460551017,400.0 121.2435565298214,410.0 103.92304845413264,400.0" fill="rgb(27, 103, 133)" /><polygon points="138.56406460551017,380.0 155.88457268119893,370.0 173.2050807568877,380.0 173.2050807568877,400.0 155.88457268119893,410.0 138.56406460551017,400.0" fill="rgb(27, 102, 132)" /><polygon points="173.2050807568877,380.0 190.52558883257646,370.0 207.84609690826522,380.0 207.84609690826522,400.0 190.52558883257646,410.0 173.2050807568877,400.0" fill="rgb(26, 103, 133)" /><polygon points="207.84609690826525,380.0 225.16660498395402,370.0 242.48711305964278,380.0 242.48711305964278,400.0 225.16660498395402,410.0 207.84609690826525,400.0" fill="rgb(26, 102, 133)" /><polygon points="242.48711305964284,380.0 259.8076211353316,370.0 277.1281292110204,380.0 277.1281292110204,400.0 259.8076211353316,410.0 242.48711305964284,400.0" fill="rgb(26, 102, 133)" /><polygon points="277.12812921102034,380.0 294.44863728670913,370.0 311.7691453623979,380.0 311.7691453623979,400.0 294.44863728670913,410.0 277.12812921102034,400.0" fill="rgb(27, 102, 133)" /><polygon points="311.76914536239786,380.0 329.08965343808666,370.0 346.41016151377545,380.0 346.41016151377545,400.0 329.08965343808666,410.0 311.76914536239786,400.0" fill="rgb(26, 102, 133)" /><polygon points="346.4101615137754,380.0 363.7306695894642,370.0 381.051177665153,380.0 381.051177665153,400.0 363.7306695894642,410.0 346.4101615137754,400.0" fill="rgb(26, 102, 133)" /><polygon points="381.051177665153,380.0 398.37168574084177,370.0 415.69219381653056,380.0 415.69219381653056,400.0 398.37168574084177,410.0 381.051177665153,400.0" fill="rgb(26, 103, 133)" /><polygon points="415.6921938165305,380.0 433.0127018922193,370.0 450.3332099679081,380.0 450.3332099679081,400.0 433.0127018922193,410.0 415.6921938165305,400.0" fill="rgb(27, 103, 133)" /><polygon points="450.33320996790803,380.0 467.6537180435968,370.0 484.9742261192856,380.0 484.9742261192856,400.0 467.6537180435968,410.0 450.33320996790803,400.0" fill="rgb(26, 103, 133)" /><polygon points="484.9742261192856,380.0 502.2947341949744,370.0 519.6152422706632,380.0 519.6152422706632,400.0 502.2947341949744,410.0 484.9742261192856,400.0" fill="rgb(26, 103, 133)" /><polygon points="519.6152422706631,380.0 536.9357503463518,370.0 554.2562584220406,380.0 554.2562584220406,400.0 536.9357503463518,410.0 519.6152422706631,400.0" fill="rgb(26, 103, 133)" /><polygon points="554.2562584220407,380.0 571.5767664977294,370.0 588.8972745734181,380.0 588.8972745734181,400.0 571.5767664977294,410.0 554.2562584220407,400.0" fill="rgb(26, 103, 133)" /><polygon points="588.8972745734183,380.0 606.217782649107,370.0 623.5382907247957,380.0 623.5382907247957,400.0 606.217782649107,410.0 588.8972745734183,400.0" fill="rgb(27, 104, 134)" /><polygon points="623.5382907247957,380.0 640.8587988004845,370.0 658.1793068761732,380.0 658.1793068761732,400.0 640.8587988004845,410.0 623.5382907247957,400.0" fill="rgb(26, 103, 133)" /><polygon points="658.1793068761733,380.0 675.499814951862,370.0 692.8203230275508,380.0 692.8203230275508,400.0 675.499814951862,410.0 658.1793068761733,400.0" fill="rgb(27, 102, 132)" /><polygon points="692.8203230275508,380.0 710.1408311032395,370.0 727.4613391789283,380.0 727.4613391789283,400.0 710.1408311032395,410.0 692.8203230275508,400.0" fill="rgb(27, 102, 132)" /><polygon points="727.4613391789284,380.0 744.7818472546171,370.0 762.1023553303058,380.0 762.1023553303058,400.0 744.7818472546171,410.0 727.4613391789284,400.0" fill="rgb(0, 0, 0)" /><polygon points="-17.32050807568877,410.0 0.0,400.0 17.32050807568877,410.0 17.32050807568877,430.0 0.0,440.0 -17.32050807568877,430.0" fill="rgb(0, 0, 0)" /><polygon points="17.32050807568877,410.0 34.64101615137754,400.0 51.96152422706631,410.0 51.96152422706631,430.0 34.64101615137754,440.0 17.32050807568877,430.0" fill="rgb(0, 0, 0)" /><polygon points="51.96152422706631,410.0 69.28203230275508,400.0 86.60254037844385,410.0 86.60254037844385,430.0 69.28203230275508,440.0 51.96152422706631,430.0" fill="rgb(0, 0, 0)" /><polygon points="86.60254037844385,410.0 103.92304845413263,400.0 121.2435565298214,410.0 121.2435565298214,430.0 103.92304845413263,440.0 86.60254037844385,430.0" fill="rgb(0, 0, 0)" /><polygon points="121.2435565298214,410.0 138.56406460551017,400.0 155.88457268119893,410.0 155.88457268119893,430.0 138.56406460551017,440.0 121.2435565298214,430.0" fill="rgb(0, 0, 0)" /><polygon points="155.88457268119893,410.0 173.2050807568877,400.0 190.52558883257646,410.0 190.52558883257646,430.0 173.2050807568877,440.0 155.88457268119893,430.0" fill="rgb(0, 0, 0)" /><polygon points="190.5255888325765,410.0 207.84609690826525,400.0 225.16660498395402,410.0 225.16660498395402,430.0 207.84609690826525,440.0 190.5255888325765,430.0" fill="rgb(0, 0, 0)" /><polygon points="225.16660498395404,410.0 242.4871130596428,400.0 259.8076211353316,410.0 259.8076211353316,430.0 242.4871130596428,440.0 225.16660498395404,430.0" fill="rgb(0, 0, 0)" /><polygon points="259.80762113533154,410.0 277.12812921102034,400.0 294.44863728670913,410.0 294.44863728670913,430.0 277.12812921102034,440.0 259.80762113533154,430.0" fill="rgb(0, 0, 0)" /><polygon points="294.4486372867091,410.0 311.76914536239786,400.0 329.08965343808666,410.0 329.08965343808666,430.0 311.76914536239786,440.0 294.4486372867091,430.0" fill="rgb(0, 0, 0)" /><polygon points="329.0896534380866,410.0 346.4101615137754,400.0 363.7306695894642,410.0 363.7306695894642,430.0 346.4101615137754,440.0 329.0896534380866,430.0" fill="rgb(0, 0, 0)" /><polygon points="363.7306695894642,410.0 381.051177665153,400.0 398.37168574084177,410.0 398.37168574084177,430.0 381.051177665153,440.0 363.7306695894642,430.0" fill="rgb(0, 0, 0)" /><polygon points="398.3716857408417,410.0 415.6921938165305,400.0 433.0127018922193,410.0 433.0127018922193,430.0 415.6921938165305,440.0 398.3716857408417,430.0" fill="rgb(0, 0, 0)" /><polygon points="433.01270189221924,410.0 450.33320996790803,400.0 467.6537180435968,410.0 467.6537180435968,430.0 450.33320996790803,440.0 433.01270189221924,430.0" fill="rgb(0, 0, 0)" /><polygon points="467.6537180435968,410.0 484.9742261192856,400.0 502.2947341949744,410.0 502.2947341949744,430.0 484.9742261192856,440.0 467.6537180435968,430.0" fill="rgb(0, 0, 0)" /><polygon points="502.2947341949743,410.0 519.6152422706631,400.0 536.9357503463518,410.0 536.9357503463518,430.0 519.6152422706631,440.0 502.2947341949743,430.0" fill="rgb(0, 0, 0)" /><polygon points="536.9357503463519,410.0 554.2562584220407,400.0 571.5767664977294,410.0 571.5767664977294,430.0 554.2562584220407,440.0 536.9357503463519,430.0" fill="rgb(0, 0, 0)" /><polygon points="571.5767664977295,410.0 588.8972745734183,400.0 606.217782649107,410.0 606.217782649107,430.0 588.8972745734183,440.0 571.5767664977295,430.0" fill="rgb(0, 0, 0)" /><polygon points="606.217782649107,410.0 623.5382907247957,400.0 640.8587988004845,410.0 640.8587988004845,430.0 623.5382907247957,440.0 606.217782649107,430.0" fill="rgb(0, 0, 0)" /><polygon points="640.8587988004846,410.0 658.1793068761733,400.0 675.499814951862,410.0 675.499814951862,430.0 658.1793068761733,440.0 640.8587988004846,430.0" fill="rgb(0, 0, 0)" /><polygon points="675.499814951862,410.0 692.8203230275508,400.0 710.1408311032395,410.0 710.1408311032395,430.0 692.8203230275508,440.0 675.499814951862,430.0" fill="rgb(0, 0, 0)" /><polygon points="710.1408311032396,410.0 727.4613391789284,400.0 744.7818472546171,410.0 744.7818472546171,430.0 727.4613391789284,440.0 710.1408311032396,430.0" fill="rgb(0, 0, 0)" /></svg>